<svg xmlns="http://www.w3.org/2000/svg" xmlns:xlink="http://www.w3.org/1999/xlink" viewBox="882.65 489.03 1332.67 903.32">
<path fill-rule="evenodd" fill="rgb(100%, 100%, 100%)" fill-opacity="1" d="M 1028.75 1022.753906 C 1028.75 1022.753906 1036.320312 981.460938 1052.148438 961.5 C 1052.148438 961.5 1112.710938 951.175781 1144.371094 951.175781 C 1144.371094 951.175781 1194.621094 994.535156 1213.890625 1029.636719 C 1233.160156 1064.738281 1204.25 1118.421875 1143.679688 1167.976562 C 1143.679688 1167.976562 1290.28125 1328.339844 1535.300781 1392.347656 C 1535.300781 1392.347656 1851.210938 1343.480469 2215.300781 1053.039062 C 2215.300781 1053.039062 2112.75 1017.25 2037.039062 899.558594 C 1961.328125 781.871094 1896.640625 685.511719 1848.460938 655.910156 C 1848.460938 655.910156 1921.410156 638.019531 1946.191406 590.53125 C 1946.191406 590.53125 1840.199219 613.929688 1754.851562 571.949219 C 1669.511719 529.960938 1548.378906 498.308594 1436.191406 490.050781 C 1324.011719 481.789062 1216.640625 527.210938 1166.398438 549.238281 C 1116.148438 571.261719 1085.871094 604.980469 1040.449219 604.300781 L 1069.351562 634.578125 C 1069.351562 634.578125 947.53125 675.191406 891.78125 731.621094 C 891.78125 731.621094 829.839844 927.085938 1028.75 1022.753906 Z M 1307.089844 1040.226562 C 1307.089844 1040.226562 1307.089844 1122.1875 1264.820312 1159.328125 C 1264.820312 1159.328125 1379.441406 1227.84375 1433.230469 1265.621094 C 1433.230469 1265.621094 1365.988281 1202.871094 1332.699219 1176.617188 C 1299.398438 1150.363281 1326.941406 1121.546875 1307.089844 1040.226562 Z M 1954.019531 938.453125 C 1944.808594 930.15625 1884.660156 877.578125 1792.539062 833.5 C 1692.21875 785.5 1598.621094 738.460938 1598.621094 738.460938 C 1598.621094 738.460938 1666.300781 792.699219 1724.859375 871.898438 C 1783.421875 951.097656 1831.898438 1052.378906 1831.898438 1052.378906 C 1831.898438 1052.378906 1729.660156 961.65625 1666.78125 915.578125 C 1666.78125 915.578125 1703.261719 947.738281 1697.019531 1024.058594 C 1690.78125 1100.378906 1645.660156 1207.417969 1645.660156 1207.417969 C 1645.660156 1207.417969 1595.261719 1086.457031 1513.660156 1018.777344 C 1432.058594 951.097656 1425.339844 943.417969 1425.339844 943.417969 L 1523.261719 950.617188 C 1523.261719 950.617188 1506.941406 883.898438 1440.699219 838.78125 C 1374.460938 793.660156 1328.378906 773.5 1328.378906 773.5 L 1340.859375 798.460938 C 1340.859375 798.460938 1238.140625 791.261719 1173.339844 804.699219 C 1173.339844 804.699219 1218.460938 811.898438 1282.300781 833.5 C 1346.140625 855.101562 1371.101562 869.980469 1371.101562 869.980469 C 1371.101562 869.980469 1261.179688 843.578125 1182.460938 843.578125 C 1103.738281 843.578125 1058.621094 869.5 1058.621094 869.5 L 1070.140625 826.78125 C 1070.140625 826.78125 996.695312 869.980469 999.097656 924.21875 C 999.097656 924.21875 973.65625 903.101562 958.777344 840.699219 C 943.894531 778.300781 971.257812 740.859375 1037.980469 713.019531 C 1104.699219 685.179688 1137.820312 665.019531 1137.820312 665.019531 L 1128.699219 633.820312 L 1176.21875 643.898438 L 1169.980469 621.820312 C 1169.980469 621.820312 1253.019531 570.460938 1351.898438 558.941406 C 1450.78125 547.421875 1488.21875 559.421875 1574.621094 585.820312 C 1661.019531 612.21875 1744.539062 641.980469 1744.539062 641.980469 C 1744.539062 641.980469 1691.261719 640.058594 1640.378906 679.421875 C 1640.378906 679.421875 1686.941406 661.179688 1762.300781 705.339844 C 1836.96875 749.101562 1908.820312 896.539062 1954.019531 938.453125 C 1954.839844 939.191406 1955.261719 939.578125 1955.261719 939.578125 C 1954.851562 939.210938 1954.429688 938.835938 1954.019531 938.453125 Z M 1500.648438 722.019531 C 1500.648438 722.019531 1562.410156 754.671875 1610.949219 812.910156 C 1659.480469 871.140625 1672.710938 895.851562 1672.710938 895.851562 C 1672.710938 895.851562 1526.238281 790.851562 1500.648438 722.019531 Z M 1102.921875 699.691406 C 1103.359375 699.460938 1103.589844 699.339844 1103.589844 699.339844 C 1103.589844 699.339844 1103.359375 699.460938 1102.921875 699.691406 C 1094.769531 704.019531 1014.519531 747.609375 1000.550781 791.980469 C 985.835938 838.738281 985.835938 866.441406 985.835938 866.441406 C 985.835938 866.441406 952.933594 790.25 994.492188 762.539062 C 1033.640625 736.449219 1095.808594 703.441406 1102.921875 699.691406 Z M 1171.738281 671.039062 L 1268.679688 721.371094 C 1268.679688 721.371094 1298.878906 763.128906 1314.539062 766.121094 C 1330.191406 769.101562 1338.398438 763.878906 1323.109375 734.050781 C 1323.109375 734.050781 1348.089844 734.050781 1394.699219 754.191406 C 1441.300781 774.320312 1493.128906 797.808594 1493.128906 797.808594 C 1493.128906 797.808594 1469.640625 753.808594 1433.46875 725.480469 C 1433.46875 725.480469 1471.128906 703.480469 1458.820312 665.449219 L 1526.308594 642.328125 L 1363.75 615.488281 L 1282.46875 668.429688 Z M 1189.261719 706.828125 C 1189.261719 706.828125 1150.859375 720.261719 1151.609375 730.699219 C 1152.351562 741.140625 1174.351562 747.46875 1174.351562 747.46875 C 1174.351562 747.46875 1111.710938 748.589844 1108.359375 728.460938 C 1105 708.328125 1189.261719 706.828125 1189.261719 706.828125 Z M 1388.148438 659.53125 C 1388.148438 659.53125 1400.371094 665.058594 1399.789062 675.238281 C 1399.210938 685.429688 1380.878906 703.46875 1380.878906 703.46875 C 1380.878906 703.46875 1417.539062 697.359375 1419.289062 679.898438 C 1421.039062 662.441406 1388.148438 659.53125 1388.148438 659.53125 Z M 1354.390625 668.261719 C 1354.390625 668.261719 1338.96875 678.730469 1341.589844 689.5 C 1341.589844 689.5 1354.691406 684.261719 1356.140625 679.898438 C 1357.601562 675.53125 1354.390625 668.261719 1354.390625 668.261719 "/>
</svg>